<svg xmlns="http://www.w3.org/2000/svg" viewBox="0 0 480 360" width="480" height="360">
  <defs>
    <linearGradient id="bg" x1="0" y1="0" x2="1" y2="1">
      <stop offset="0" stop-color="#ffffff" stop-opacity="0.18"/>
      <stop offset="1" stop-color="#ffffff" stop-opacity="0.04"/>
    </linearGradient>
  </defs>
  <circle cx="240" cy="180" r="160" fill="url(#bg)"/>
  <circle cx="240" cy="180" r="110" fill="none" stroke="#ffffff" stroke-opacity="0.15" stroke-dasharray="6 8"/>

  <!-- positive bubble -->
  <g>
    <rect x="40" y="48" width="230" height="78" rx="22" fill="#14532d"/>
    <rect x="40" y="48" width="230" height="78" rx="22" fill="#22c55e" fill-opacity="0.9"/>
    <path d="M70 126l-10 26 34-26z" fill="#22c55e" fill-opacity="0.9"/>
    <circle cx="82" cy="87" r="20" fill="#fff"/>
    <circle cx="75" cy="82" r="2.8" fill="#14532d"/>
    <circle cx="89" cy="82" r="2.8" fill="#14532d"/>
    <path d="M72 91c3 6 7 8 10 8s7-2 10-8" fill="none" stroke="#14532d" stroke-width="3" stroke-linecap="round"/>
    <rect x="116" y="70" width="120" height="9" rx="4.5" fill="#fff" fill-opacity="0.9"/>
    <rect x="116" y="90" width="84" height="9" rx="4.5" fill="#fff" fill-opacity="0.65"/>
  </g>

  <!-- neutral bubble -->
  <g>
    <rect x="210" y="146" width="230" height="78" rx="22" fill="#94a3b8"/>
    <path d="M410 224l10 26-34-26z" fill="#94a3b8"/>
    <circle cx="252" cy="185" r="20" fill="#fff"/>
    <circle cx="245" cy="180" r="2.8" fill="#334155"/>
    <circle cx="259" cy="180" r="2.8" fill="#334155"/>
    <path d="M243 192h18" stroke="#334155" stroke-width="3" stroke-linecap="round"/>
    <rect x="286" y="168" width="124" height="9" rx="4.5" fill="#fff" fill-opacity="0.9"/>
    <rect x="286" y="188" width="90" height="9" rx="4.5" fill="#fff" fill-opacity="0.65"/>
  </g>

  <!-- negative bubble -->
  <g>
    <rect x="40" y="244" width="230" height="78" rx="22" fill="#ef4444"/>
    <path d="M70 322l-10 26 34-26z" fill="#ef4444"/>
    <circle cx="82" cy="283" r="20" fill="#fff"/>
    <circle cx="75" cy="278" r="2.8" fill="#7f1d1d"/>
    <circle cx="89" cy="278" r="2.8" fill="#7f1d1d"/>
    <path d="M72 295c3-6 7-8 10-8s7 2 10 8" fill="none" stroke="#7f1d1d" stroke-width="3" stroke-linecap="round"/>
    <rect x="116" y="266" width="112" height="9" rx="4.5" fill="#fff" fill-opacity="0.9"/>
    <rect x="116" y="286" width="76" height="9" rx="4.5" fill="#fff" fill-opacity="0.65"/>
  </g>

  <!-- sparkles -->
  <g fill="#fff" fill-opacity="0.85">
    <path d="M420 70l4 10 10 4-10 4-4 10-4-10-10-4 10-4z"/>
    <path d="M370 280l3 7 7 3-7 3-3 7-3-7-7-3 7-3z"/>
  </g>
</svg>
